<?xml version="1.0" standalone="no"?><!DOCTYPE svg PUBLIC "-//W3C//DTD SVG 1.1//EN" "http://www.w3.org/Graphics/SVG/1.1/DTD/svg11.dtd"><svg t="1733932167019" class="icon" viewBox="0 0 6074 1024" version="1.1" xmlns="http://www.w3.org/2000/svg" p-id="7065" xmlns:xlink="http://www.w3.org/1999/xlink" width="1518.5" height="256"><path d="M511.422411 1024V826.209532c211.448633 0 371.299753-207.907627 292.891767-429.473419-30.857336-81.948992-95.607157-146.698812-177.050291-177.050291-221.565792-78.407986-429.47342 81.948992-429.473419 292.891767H0c0-333.866263 323.749103-596.406551 674.814537-487.647087 153.274966 47.55065 276.198454 170.474137 323.749103 323.749103 109.265322 351.571292-153.274966 675.320395-487.141229 675.320395z" fill="#1296db" p-id="7066"></path><path d="M511.422411 826.209532H313.631944v-197.790467h197.790467zM313.631944 979.484498H163.392125V826.209532H313.631944zM163.392125 826.209532H33.892484v-125.958635h129.499641z" fill="#1296db" p-id="7067"></path><path d="M1820.076989 298.093808c-58.173667-40.974496-133.040647-61.208815-218.024786-61.208815h-184.132303v586.289391h184.132303c84.98414 0 156.815972-20.234319 218.024786-64.74982 30.857336-23.775325 58.173667-54.632661 74.86698-95.607157 17.199171-40.974496 27.316331-84.98414 27.316331-139.616801 0-51.091655-10.117159-98.642305-27.316331-136.581653s-40.974496-68.290826-74.86698-88.525145z m-292.891767 37.43349h58.173667c64.749821 0 119.382482 13.658165 160.356978 37.43349 44.515502 27.316331 68.290826 78.407986 68.290827 153.274966 0 78.407986-23.775325 129.499641-68.290827 160.356978-37.43349 23.775325-92.066151 37.43349-156.815972 37.43349H1527.69108l-0.505858-388.498924zM2051.759941 229.802981c-17.199171 0-33.892484 6.576154-44.515502 17.199171-13.658165 13.658165-20.234319 27.316331-20.234318 44.515502 0 17.199171 6.576154 33.892484 20.234318 44.515502 13.658165 13.658165 27.316331 20.234319 44.515502 20.234319s33.892484-6.576154 44.515502-20.234319c13.658165-13.658165 20.234319-27.316331 20.234319-44.515502 0-17.199171-6.576154-33.892484-20.234319-44.515502-10.117159-10.623017-27.316331-17.199171-44.515502-17.199171zM1997.12728 410.394278h105.724316V826.209532h-105.724316zM2481.233361 444.286762c-30.857336-27.316331-68.290826-44.515502-105.724317-44.515501-58.173667 0-105.724316 20.234319-143.157806 58.173666-37.43349 37.43349-54.632661 88.525145-54.632661 149.733961 0 58.173667 17.199171 109.265322 54.632661 149.73396 37.43349 37.43349 84.98414 58.173667 143.157806 58.173667 40.974496 0 74.86698-10.117159 102.183311-33.892484v10.117159c0 33.892484-10.117159 61.208815-27.316331 78.407986-17.199171 17.199171-44.515502 27.316331-74.86698 27.316331-47.55065 0-78.407986-20.234319-115.841476-68.290827l-71.325974 68.290827 3.541006 3.541005c13.658165 20.234319 37.43349 40.974496 68.290826 61.208815s68.290826 30.857336 115.841476 30.857337c61.208815 0 112.30047-20.234319 149.73396-58.173667s54.632661-88.525145 54.632662-149.733961v-374.840758h-102.183311l3.035148 33.892484z m-27.316331 245.341117c-17.199171 20.234319-40.974496 30.857336-71.325974 30.857337s-54.632661-10.117159-71.325974-30.857337-27.316331-47.55065-27.316331-81.948991 10.117159-61.208815 27.316331-81.948992 40.974496-30.857336 71.325974-30.857336 54.632661 10.117159 71.325974 30.857336 27.316331 47.55065 27.316331 81.948992-10.117159 61.714673-27.316331 81.948991zM2671.941817 410.394278h105.724316V826.209532h-105.724316zM2726.574478 229.802981c-17.199171 0-33.892484 6.576154-44.515502 17.199171-13.658165 13.658165-20.234319 27.316331-20.234319 44.515502 0 17.199171 6.576154 33.892484 20.234319 44.515502 13.658165 13.658165 27.316331 20.234319 44.515502 20.234319s33.892484-6.576154 44.515502-20.234319c13.658165-13.658165 20.234319-27.316331 20.234319-44.515502 0-17.199171-6.576154-33.892484-20.234319-44.515502-10.117159-10.623017-27.316331-17.199171-44.515502-17.199171zM3006.313937 298.093808h-102.18331v112.30047H2842.921812v95.607157h61.208815v170.474137c0 54.632661 10.117159 92.066151 30.857336 115.841476 20.234319 23.775325 58.173667 33.892484 112.30047 33.892484 17.199171 0 33.892484 0 51.091656-3.541006h3.541005v-95.607157l-33.892484 3.541006c-23.775325 0-40.974496-3.541006-51.091655-13.658165-6.576154-10.117159-13.658165-27.316331-13.658165-54.632661v-156.815972h98.642304v-95.607157h-95.607157v-111.794612zM3589.062323 236.379135h105.724317v586.289391h-105.724317zM4747.982941 675.969714c-17.199171 20.234319-37.43349 40.974496-51.091656 47.55065-13.658165 10.117159-30.857336 13.658165-54.632661 13.658165-30.857336 0-54.632661-10.117159-74.86698-33.892484s-30.857336-51.091655-30.857336-88.525146 10.117159-64.749821 30.857336-88.525145c20.234319-23.775325 44.515502-33.892484 74.86698-33.892484 33.892484 0 68.290826 20.234319 98.642305 58.173667l68.290827-64.749821c-44.515502-58.173667-102.183311-84.98414-170.474138-84.98414-58.173667 0-105.724316 20.234319-146.698812 61.208815s-61.208815 92.066151-61.208815 153.274966c0 61.208815 20.234319 112.30047 61.208815 153.274966 40.974496 40.974496 88.525145 61.208815 146.698812 61.208815 74.86698 0 136.581653-30.857336 177.050291-92.066151l-67.784968-61.714673zM5173.915355 468.062087c-13.658165-20.234319-33.892484-37.43349-61.208815-51.091655-23.775325-13.658165-54.632661-17.199171-84.98414-17.199171-58.173667 0-105.724316 20.234319-143.157806 64.74982-33.892484 40.974496-51.091655 95.607157-51.091656 156.815972s20.234319 115.841476 58.173667 153.274966c37.43349 40.974496 88.525145 61.208815 149.73396 61.208815 68.290826 0 129.499641-27.316331 170.474138-84.98414l3.541005-3.541006-68.290826-64.74982c-6.576154 6.576154-13.658165 17.199171-23.775325 23.775325-10.117159 10.117159-20.234319 17.199171-30.857336 23.775324-13.658165 6.576154-33.892484 10.117159-51.091656 10.11716-30.857336 0-51.091655-6.576154-71.325974-23.775325-17.199171-13.658165-27.316331-37.43349-30.857336-61.208815h276.198453v-37.43349c0-27.316331-3.541006-51.091655-10.117159-78.407986-4.046864-26.810473-14.164023-50.585797-31.363194-71.325974z m-225.106799 95.607157c3.541006-20.234319 13.658165-37.43349 27.316331-51.091655s30.857336-20.234319 54.632661-20.234319c23.775325 0 44.515502 6.576154 58.173667 20.234319s20.234319 30.857336 20.234319 47.550649l-160.356978 3.541006zM5576.072444 441.251614c-30.857336-27.316331-74.86698-40.974496-129.499642-40.974496-33.892484 0-68.290826 6.576154-95.607157 23.775325-27.316331 13.658165-54.632661 37.43349-71.325974 68.290827l68.290826 64.74982c27.316331-44.515502 58.173667-58.173667 98.642305-58.173667 23.775325 0 40.974496 6.576154 54.632662 17.199171 13.658165 10.117159 20.234319 27.316331 20.234318 44.515502v20.234319c-27.316331-6.576154-51.091655-13.658165-78.407985-13.658165-51.091655 0-95.607157 13.658165-125.958636 37.43349-30.857336 23.775325-47.55065 61.208815-47.550649 102.183311 0 37.43349 13.658165 71.325974 40.974495 95.607157 27.316331 23.775325 61.208815 33.892484 98.642305 33.892484s78.407986-17.199171 109.265323-44.515502v33.892484h102.18331v-266.081294c3.035148-53.620945-10.623017-91.560293-44.515501-118.370766z m-184.132303 224.600941c13.658165-6.576154 27.316331-13.658165 51.091656-13.658166s51.091655 3.541006 78.407985 13.658166v40.974496c-23.775325 20.234319-51.091655 30.857336-88.525145 30.857336-17.199171 0-30.857336-3.541006-40.974496-13.658165-10.117159-6.576154-13.658165-17.199171-13.658165-30.857337-3.541006-10.117159 0-20.234319 13.658165-27.31633zM6025.780182 447.827768c-30.857336-30.857336-68.290826-47.55065-122.923487-47.55065-40.974496 0-74.86698 13.658165-98.642305 33.892485v-23.775325h-102.183311V826.209532h105.724317v-228.141946c0-30.857336 6.576154-58.173667 23.775324-74.86698 13.658165-17.199171 33.892484-27.316331 61.208815-27.31633 23.775325 0 40.974496 6.576154 54.632661 23.775324 13.658165 17.199171 20.234319 37.43349 20.234319 64.749821v238.764963h105.724317v-238.764963c-3.035148-58.173667-20.234319-102.689169-47.55065-136.581653zM3459.562682 441.251614c-30.857336-27.316331-74.86698-40.974496-129.499641-40.974496-33.892484 0-68.290826 6.576154-95.607157 23.775325-27.316331 13.658165-54.632661 37.43349-71.325975 68.290827l68.290827 64.74982c27.316331-44.515502 58.173667-58.173667 98.642305-58.173667 23.775325 0 40.974496 6.576154 54.632661 17.199171 13.658165 10.117159 20.234319 27.316331 20.234319 44.515502v20.234319c-27.316331-6.576154-51.091655-13.658165-78.407986-13.658165-51.091655 0-95.607157 13.658165-125.958636 37.43349-30.857336 23.775325-47.55065 61.208815-47.550649 102.183311 0 37.43349 13.658165 71.325974 40.974496 95.607157 27.316331 23.775325 61.208815 33.892484 98.642305 33.892484 40.974496 0 78.407986-17.199171 109.265322-44.515502v33.892484h102.183311v-266.081294c3.035148-53.620945-14.164023-91.560293-44.515502-118.370766z m-184.132303 224.600941c13.658165-6.576154 27.316331-13.658165 51.091656-13.658166s51.091655 3.541006 78.407986 13.658166v40.974496c-23.775325 20.234319-51.091655 30.857336-88.525146 30.857336-17.199171 0-30.857336-3.541006-40.974496-13.658165-10.117159-6.576154-13.658165-17.199171-13.658165-30.857337-3.541006-10.117159 0-20.234319 13.658165-27.31633zM4073.168404 832.785686c-166.933131 0-303.514784-136.581653-303.514784-303.514784s136.581653-303.514784 303.514784-303.514784 303.514784 136.581653 303.514784 303.514784-136.581653 303.514784-303.514784 303.514784z m0-500.799394c-109.265322 0-197.790468 88.525145-197.790468 197.790468s88.525145 197.790468 197.790468 197.790467 197.790468-88.525145 197.790468-197.790467-89.031003-197.790468-197.790468-197.790468z" fill="#1296db" p-id="7068"></path></svg>